<svg width="143" height="36" viewBox="0 0 143 36" fill="none" xmlns="http://www.w3.org/2000/svg">
<g filter="url(#filter0_dd_766_3256)">
<path d="M4.17723 2H26.849C27.5188 2 28.0465 2.54802 28.0465 3.19752V30.2535C28.0465 30.9233 27.4985 31.451 26.849 31.451H4.19753C3.52772 31.451 3 30.903 3 30.2535V3.21782C3 2.54802 3.54802 2.0203 4.21782 2.0203" fill="white"/>
<path d="M6.38956 4.49658C6.26778 4.74015 6.146 4.96341 6.04451 5.20698H4.84698C4.96877 4.96341 5.07025 4.71985 5.21233 4.49658H6.38956Z" fill="#EE1D25"/>
<path d="M8.60196 4.49658C8.50048 4.74015 8.3584 4.96341 8.25691 5.20698H7.05939C7.18117 4.96341 7.28265 4.71985 7.42473 4.49658H8.60196Z" fill="#0872B9"/>
<path d="M10.8346 4.49658C10.7331 4.74015 10.5911 4.96341 10.4896 5.20698H9.29205C9.41384 4.96341 9.51532 4.71985 9.6574 4.49658H10.8346Z" fill="#EE1D25"/>
<path d="M11.8901 4.49658H13.0674C12.9456 4.74015 12.8441 4.98371 12.7223 5.20698H11.5248C11.6263 4.96341 11.748 4.71985 11.8698 4.49658" fill="#0872B9"/>
<path d="M14.1431 4.49658H15.2797C15.1579 4.74015 15.0361 4.96341 14.9346 5.20698H13.7371C13.8386 4.96341 13.9604 4.71985 14.0822 4.49658" fill="#EE1D25"/>
<path d="M16.2945 4.49658H17.5124C17.3906 4.74015 17.2688 4.96341 17.1673 5.20698H15.9698C16.0916 4.98371 16.1931 4.71985 16.3351 4.49658" fill="#0872B9"/>
<path d="M19.7451 4.49658C19.6233 4.74015 19.5015 4.96341 19.4 5.20698H18.2025C18.3243 4.96341 18.4258 4.71985 18.5679 4.49658H19.7451Z" fill="#EE1D25"/>
<path d="M21.8763 4.49658C21.7748 4.74015 21.6327 4.96341 21.5312 5.20698H20.3337C20.4555 4.96341 20.5569 4.71985 20.699 4.49658H21.8763Z" fill="#0872B9"/>
<path d="M24.1089 4.49658C24.0074 4.74015 23.8653 4.96341 23.7638 5.20698H22.546C22.6678 4.96341 22.7693 4.71985 22.9114 4.49658H24.1089Z" fill="#EE1D25"/>
<path d="M26.3213 4.49658C26.1995 4.74015 26.098 4.98371 25.9762 5.20698H24.7787C24.9005 4.96341 25.002 4.71985 25.1237 4.49658H26.3213Z" fill="#0872B9"/>
<path d="M5.23263 28.4875H6.36926C6.24748 28.7311 6.1257 28.9544 6.02421 29.1979H4.84698C4.96877 28.9544 5.07025 28.7108 5.21233 28.4875" fill="#EE1D25"/>
<path d="M8.60196 28.4875C8.48018 28.7311 8.3584 28.9747 8.23661 29.1979H7.05939C7.18117 28.9544 7.28265 28.7108 7.42473 28.4875H8.60196Z" fill="#0872B9"/>
<path d="M10.8347 28.4875C10.7332 28.7311 10.6114 28.9544 10.4896 29.1979H9.31238C9.43416 28.9544 9.53565 28.7108 9.67772 28.4875H10.8347Z" fill="#EE1D25"/>
<path d="M13.0471 28.4875C12.9456 28.7311 12.8035 28.9544 12.702 29.1979H11.5248C11.6466 28.9544 11.7683 28.7108 11.8901 28.4875H13.0471Z" fill="#0872B9"/>
<path d="M14.1431 28.4875H15.2594C15.1579 28.7311 15.0158 28.9544 14.9144 29.1979H13.7371C13.8589 28.9544 13.9604 28.7108 14.1025 28.4875" fill="#EE1D25"/>
<path d="M16.2946 28.4875H17.5124C17.3906 28.7311 17.2688 28.9544 17.1673 29.1979H15.9901C16.1119 28.9544 16.2134 28.7108 16.3555 28.4875" fill="#0872B9"/>
<path d="M19.7248 28.4875C19.603 28.7311 19.4812 28.9747 19.3594 29.1979H18.1822C18.304 28.9544 18.4055 28.7108 18.5475 28.4875H19.7248Z" fill="#EE1D25"/>
<path d="M21.8763 28.4875C21.7545 28.7108 21.6327 28.9747 21.5109 29.1979H20.3337C20.4555 28.9544 20.5569 28.7108 20.699 28.4875H21.8763Z" fill="#0872B9"/>
<path d="M24.0886 28.4875C23.9871 28.7311 23.8654 28.9544 23.7436 29.1979H22.5663C22.6881 28.9544 22.7896 28.7108 22.9317 28.4875H24.0886Z" fill="#EE1D25"/>
<path d="M26.3213 28.4875C26.2198 28.7311 26.0777 28.9544 25.9762 29.1979H24.7787C24.9005 28.9747 25.0223 28.7108 25.144 28.4875H26.3213Z" fill="#0872B9"/>
<path d="M11.7683 8.59645C11.7683 8.59645 11.7886 8.49496 11.8901 8.39348C11.9916 8.29199 12.154 8.29199 12.154 8.29199H21.4094C21.4094 8.29199 21.9371 8.41377 21.9371 9.10387C21.9371 9.79397 21.4094 9.83457 21.4094 9.83457H13.5544V16.0049H20.5366C20.5366 16.0049 21.0846 16.0455 21.0846 16.837C21.0846 17.6286 20.5366 17.6489 20.5366 17.6489H13.5544V24.4281C13.5544 24.4281 13.595 25.0167 12.6817 25.0167C11.7886 25.0167 11.7683 24.4281 11.7683 24.4281V8.59645Z" fill="#0872B9"/>
</g>
<path d="M55.894 18.0143C56.5638 18.0346 56.9292 17.4054 57.3351 17.04C58.1673 16.2687 58.898 15.5583 59.7911 14.7465C60.4203 14.1578 60.8668 13.2648 62.247 13.6098C62.5109 13.9549 62.3688 14.1375 62.1252 14.3608C60.745 15.7207 59.0807 17.1415 57.7411 18.542C59.101 20.0643 60.7247 21.8098 62.1861 23.4336C62.5109 23.7989 62.9168 23.9816 62.5921 24.489C61.2119 24.8544 60.6638 23.8598 60.0346 23.1697C59.1416 22.2158 58.35 21.3024 57.4772 20.389C57.0713 19.9628 56.6653 19.2524 55.9346 19.293C55.8129 20.8762 55.9752 22.7232 55.8534 24.3064C55.6708 24.6514 54.5747 24.6514 54.3921 24.3064C54.3109 19.293 54.3718 14.0969 54.3515 9.00239C54.453 8.9415 54.4935 8.81972 54.6153 8.77912C55.0822 8.79942 55.6911 8.67764 55.8534 9.00239C55.9549 11.9252 55.8737 15.0103 55.894 18.0143Z" fill="#0872B9"/>
<path d="M35.7391 14.6449V14.1578C35.9826 13.7112 36.896 13.9548 37.5049 13.8939C37.2816 11.1944 38.2559 9.18499 40.4886 9.00232C41.2396 8.94142 41.9906 9.02261 42.4777 9.34736C42.4168 9.61123 42.5386 10.1389 42.2544 10.3216C41.9906 10.484 41.4019 10.3013 40.9757 10.3216C39.1693 10.4028 38.9663 11.8439 39.0475 13.8939C39.8188 14.0766 41.544 13.63 42.1732 13.9345C42.498 14.0969 42.5386 14.8885 42.2138 15.1117C41.9094 15.2944 41.1584 15.1929 40.6713 15.1929H39.0475V22.1954C39.0475 22.8652 39.2099 24.1439 38.9054 24.4078C38.6213 24.6513 37.6064 24.6107 37.5049 24.2251V15.1726C36.8148 15.1117 35.8812 15.2741 35.7391 14.6449Z" fill="#0872B9"/>
<path d="M131.216 9.08351C132.049 8.98202 132.779 9.77361 132.495 10.6667C132.15 11.7424 130.506 11.7018 130.202 10.6667C129.917 9.75331 130.506 9.1647 131.216 9.08351Z" fill="#0872B9"/>
<path d="M66.7936 13.8533C67.7069 13.9345 68.7827 13.8736 69.7772 13.8939C70.1426 14.0562 70.1223 14.9696 69.8178 15.1726H66.7936V18.7652C66.7936 20.0033 66.6312 21.2008 66.7936 22.3374C66.895 23.1087 67.6257 23.5147 68.4985 23.2102C68.8841 23.0681 69.2495 22.5607 69.6351 22.6013C70.0411 22.6419 70.0817 23.1696 70.3455 23.4335C69.8381 24.0627 69.148 24.5701 68.1941 24.6716C66.4688 24.8543 65.4134 24.0221 65.251 22.5607C65.0277 20.4092 65.4134 17.5067 65.251 15.2132C64.2158 15.1523 63.1807 15.3958 63.4851 14.0156C64.1144 13.9953 64.6827 13.9142 65.2916 13.8939C65.2916 13.3864 65.3525 12.6963 65.4134 11.9656C65.4945 10.9102 65.251 9.65178 66.5094 9.89535C66.5906 10.0171 66.6921 10.1186 66.8139 10.1998L66.7936 13.8533Z" fill="#0872B9"/>
<path d="M50.1297 23.2712C49.0134 24.0222 48.0188 24.8544 46.0297 24.6717C43.7158 24.4485 42.498 21.5866 44.1421 19.9222C45.3802 18.6638 47.5926 18.4608 49.9876 18.2579C50.3327 15.8628 49.2163 14.2391 46.9431 14.8277C46.5574 14.9292 46.1515 15.1727 45.7658 15.4366C45.4411 15.6599 45.0757 16.0861 44.6698 16.0861C44.1624 16.0658 44.0812 15.5787 43.8782 15.3351C44.6495 14.3 45.9079 13.5287 47.6129 13.4069C49.947 13.2445 51.3678 14.6653 51.5302 16.9183C51.6926 19.1103 51.449 21.9519 51.4896 24.3064C50.8401 24.9153 49.9267 24.2658 50.1297 23.2712ZM49.602 19.5569C48.0594 19.6381 46.3545 19.841 45.4614 20.5717C44.9134 21.0183 44.751 22.1143 45.1975 22.7638C45.9485 23.8396 47.9173 23.393 48.851 22.8044C49.2975 22.5202 49.9267 22.1143 50.0282 21.7084C50.1906 20.998 49.9064 20.3688 50.0282 19.5163C49.7847 19.4757 49.7238 19.5366 49.602 19.5569Z" fill="#0872B9"/>
<path d="M90.1149 13.894C89.9931 14.3609 90.054 14.9901 89.6683 15.1727C89.1406 15.1727 88.7144 14.9292 88.2272 14.9089C86.9282 14.8277 86.1772 15.4975 85.6698 16.3703C85.4871 16.695 85.203 17.1213 85.1421 17.5069C84.9797 18.5217 85.1421 19.7396 85.1421 20.8965V24.2455C84.9594 24.6312 83.7822 24.6312 83.5995 24.2455V13.8331C83.8431 13.4678 84.6753 13.4475 84.9188 13.7925C85.1827 14.1579 84.9391 14.6856 85.0609 15.193C85.6089 14.3812 86.5629 13.4475 88.0446 13.3866C88.8159 13.346 89.5263 13.5693 90.1149 13.894Z" fill="#0872B9"/>
<path d="M142.704 24.4891C141.791 24.753 141.466 24.1035 141.507 23.2916C140.451 24.0223 139.396 24.8748 137.407 24.6921C135.803 24.55 134.606 23.3525 134.809 21.4446C134.849 21.0386 135.012 20.6124 135.215 20.3079C136.291 18.7451 138.889 18.4609 141.365 18.2782C141.75 15.9238 140.553 14.1579 138.199 14.8886C137.813 15.0104 137.448 15.254 137.102 15.4975C136.717 15.7817 136.351 16.1267 136.006 16.1064C135.54 16.0658 135.458 15.5787 135.255 15.3554C136.149 14.2797 137.326 13.4881 139.132 13.3866C140.594 13.3054 141.73 13.9144 142.299 14.848C143.273 16.4515 142.948 19.5975 142.948 22.1144V23.4337C142.928 23.799 143.029 24.2252 142.704 24.4891ZM140.999 19.5569C139.315 19.6381 137.143 19.8614 136.473 20.9574C136.027 21.6881 136.392 22.7233 136.879 23.1089C137.732 23.7584 139.416 23.3119 140.188 22.8451C140.492 22.6624 141.284 22.0738 141.365 21.7896C141.446 21.4649 141.365 20.998 141.365 20.6124C141.365 20.2267 141.426 19.8411 141.284 19.5163C141.162 19.496 141.081 19.5366 140.999 19.5569Z" fill="#0872B9"/>
<path d="M95.5748 13.4475C97.9698 13.2039 99.5936 14.2188 100.426 15.6802C101.4 17.3851 101.502 20.3891 100.507 22.2767C99.2891 24.5703 95.656 25.5039 93.2812 23.8193C92.0228 22.9262 91.3936 21.4445 91.2515 19.6381C91.1094 17.7099 91.5966 15.9846 92.6114 14.848C93.2203 14.1376 94.2758 13.5693 95.5748 13.4475ZM93.6466 15.8629C92.3678 17.4663 92.449 21.3228 94.0525 22.6421C94.8035 23.251 96.3258 23.596 97.5842 23.0886C98.1322 22.8653 98.6193 22.4391 98.9441 21.9114C99.9386 20.3282 99.8371 17.2025 98.7614 15.8426C98.254 15.2133 97.3 14.6856 96.0213 14.7465C94.8035 14.8277 94.154 15.2133 93.6466 15.8629Z" fill="#0872B9"/>
<path d="M127.522 24.3064C127.319 24.6514 126.284 24.6311 126.081 24.347C125.899 24.0628 126 23.2509 126 22.6217C126 20.8356 126.102 18.9479 126 17.2633C125.919 15.9643 125.31 14.9088 124.031 14.7871C122.245 14.6044 121.169 15.5989 120.378 16.5935V22.4796C120.378 23.0682 120.5 24.0628 120.297 24.3673C120.114 24.6311 119.201 24.6311 118.977 24.4484C118.652 24.1643 118.835 22.4999 118.835 21.8098V14.9088C118.835 14.442 118.795 13.8737 118.977 13.7113C119.282 13.4475 120.012 13.5692 120.175 13.8534C120.357 14.1781 120.215 14.5638 120.297 14.9494C121.251 14.1781 122.286 13.3054 124.254 13.4475C126.325 13.5895 127.401 15.0915 127.522 17.1821C127.685 19.2727 127.482 21.9519 127.522 24.3064Z" fill="#0872B9"/>
<path d="M113.132 22.0736C113.903 19.8612 114.755 17.1008 115.547 14.6449C115.649 14.3404 115.77 13.7924 115.953 13.6706C116.217 13.4879 116.785 13.5488 117.13 13.5894C117.211 13.6909 117.252 13.8127 117.353 13.8939C116.217 17.4661 114.979 20.9369 113.842 24.5092C113.538 24.4483 112.969 24.5904 112.665 24.4686C112.259 24.286 111.995 22.8652 111.833 22.3983C111.102 20.328 110.31 17.933 109.641 15.9845C108.849 18.2374 107.915 20.9775 107.083 23.4538C106.982 23.7785 106.84 24.3265 106.677 24.428C106.413 24.5904 105.804 24.4483 105.48 24.5092C104.485 21.5864 103.389 18.2577 102.354 15.1726C102.151 14.5637 101.765 13.8939 102.212 13.5488C103.734 13.1429 103.836 14.7058 104.14 15.6191C104.83 17.73 105.541 20.0845 106.17 22.0533C106.88 19.983 107.936 16.9587 108.727 14.5637C108.869 14.1171 108.89 13.6097 109.336 13.5082C110.676 13.1835 110.757 14.8275 111 15.6191C111.65 17.8112 112.482 19.9018 113.132 22.0736Z" fill="#0872B9"/>
<path d="M80.5753 13.7924C80.6362 17.2023 80.6362 20.8963 80.5753 24.3062C80.3114 24.6513 79.4995 24.631 79.2966 24.2656C79.1139 23.9612 79.256 23.5958 79.1748 23.1696C78.3629 23.8191 77.5307 24.5498 76.1911 24.6716C74.5065 24.834 73.1669 24.225 72.4971 23.0884C71.8475 21.9721 71.8881 20.4295 71.8881 18.7651C71.8881 17.1211 71.8475 15.3958 71.9287 13.8736C71.9693 13.7315 72.0911 13.6706 72.1926 13.5691C72.7203 13.5894 73.1466 13.4879 73.3698 13.7518C73.5931 14.0359 73.451 15.2943 73.451 15.9439V18.1968C73.451 20.2265 73.2886 22.2562 74.5065 23.0275C74.7703 23.1899 75.2169 23.3117 75.3792 23.332C77.2871 23.5755 78.2005 22.581 79.0733 21.5661V15.5176C79.0733 14.9087 78.9515 13.9142 79.2154 13.6706C79.4995 13.427 80.3926 13.5082 80.5753 13.7924Z" fill="#0872B9"/>
<path d="M130.831 13.5895C130.831 13.5489 130.851 13.5489 130.871 13.5489C131.298 13.5895 131.683 13.4677 131.927 13.6301C132.292 13.8736 132.109 15.7004 132.109 16.2687V21.8504C132.109 22.5811 132.292 24.2048 131.927 24.4484C131.683 24.6108 130.81 24.5905 130.648 24.3266C130.404 23.941 130.567 22.2766 130.567 21.7286C130.567 19.0291 130.567 16.4311 130.567 13.8127C130.689 13.7722 130.729 13.6504 130.831 13.5895Z" fill="#0872B9"/>
<defs>
<filter id="filter0_dd_766_3256" x="0" y="0" width="31.0466" height="35.4509" filterUnits="userSpaceOnUse" color-interpolation-filters="sRGB">
<feFlood flood-opacity="0" result="BackgroundImageFix"/>
<feColorMatrix in="SourceAlpha" type="matrix" values="0 0 0 0 0 0 0 0 0 0 0 0 0 0 0 0 0 0 127 0" result="hardAlpha"/>
<feOffset dy="1"/>
<feGaussianBlur stdDeviation="1.5"/>
<feColorMatrix type="matrix" values="0 0 0 0 0 0 0 0 0 0 0 0 0 0 0 0 0 0 0.1 0"/>
<feBlend mode="normal" in2="BackgroundImageFix" result="effect1_dropShadow_766_3256"/>
<feColorMatrix in="SourceAlpha" type="matrix" values="0 0 0 0 0 0 0 0 0 0 0 0 0 0 0 0 0 0 127 0" result="hardAlpha"/>
<feMorphology radius="1" operator="erode" in="SourceAlpha" result="effect2_dropShadow_766_3256"/>
<feOffset dy="1"/>
<feGaussianBlur stdDeviation="1"/>
<feColorMatrix type="matrix" values="0 0 0 0 0 0 0 0 0 0 0 0 0 0 0 0 0 0 0.1 0"/>
<feBlend mode="normal" in2="effect1_dropShadow_766_3256" result="effect2_dropShadow_766_3256"/>
<feBlend mode="normal" in="SourceGraphic" in2="effect2_dropShadow_766_3256" result="shape"/>
</filter>
</defs>
</svg>
