<?xml version="1.0" encoding="utf-8"?>
<!-- Generator: Adobe Illustrator 24.1.3, SVG Export Plug-In . SVG Version: 6.00 Build 0)  -->
<svg version="1.1" id="Layer_1" xmlns="http://www.w3.org/2000/svg" xmlns:xlink="http://www.w3.org/1999/xlink" x="0px" y="0px"
	 viewBox="0 0 131 50" style="enable-background:new 0 0 131 50;" xml:space="preserve">
<style type="text/css">
	.st0{fill-rule:evenodd;clip-rule:evenodd;fill:#184868;}
	.st1{fill-rule:evenodd;clip-rule:evenodd;fill:#A4BDC4;}
	.st2{fill-rule:evenodd;clip-rule:evenodd;fill:#0095DE;}
	.st3{fill-rule:evenodd;clip-rule:evenodd;fill:#565A69;}
	.st4{fill-rule:evenodd;clip-rule:evenodd;fill:#FF8600;}
	.st5{fill-rule:evenodd;clip-rule:evenodd;fill:#001B29;}
	.st6{fill:#FFFFFF;}
</style>
<g id="mBank40LogotypeCorporate">
	<g id="Corporate-Stripes" transform="translate(0.000000, 0.000000)">
		<rect id="mBank-Chathams-Blue" class="st0" width="34.2" height="50"/>
		<rect id="mBank-Opal" x="34.2" class="st1" width="3.8" height="50"/>
		<rect id="mBank-Cerulean-Blue" x="38.1" class="st2" width="35.3" height="50"/>
		<rect id="mBank-Mid-Gray" x="73.4" class="st3" width="23.1" height="50"/>
		<rect id="mBank-Flush-Orange" x="96.4" class="st4" width="2.4" height="50"/>
		<rect id="mBank-Daintree" x="98.9" class="st5" width="32.1" height="50"/>
	</g>
	<path id="mBank" class="st6" d="M19.5,35.1v-7.9c0-1.4,0.3-2.4,0.9-3.1c0.6-0.7,1.4-1,2.5-1c2,0,3,1.2,3,3.7v8.3h4.5v-7.8
		c0-1.4,0.3-2.4,0.9-3.1c0.6-0.7,1.5-1,2.5-1c0.9,0,1.7,0.3,2.2,0.9c0.5,0.6,0.8,1.5,0.8,2.8v8.3h4.5v-9c0-2.3-0.6-4-1.7-5.2
		c-1.1-1.2-2.7-1.7-4.6-1.7c-1.2,0-2.2,0.2-3.2,0.7c-1,0.4-1.8,1.1-2.4,1.9c-0.5-0.8-1.3-1.5-2.1-1.9c-0.9-0.4-1.9-0.7-3-0.7
		c-1.2,0-2.2,0.2-3.1,0.7c-0.9,0.5-1.7,1.1-2.2,2l-0.2-2.4h-5.4V23H15v12.2H19.5L19.5,35.1z M55,35.1c2.6,0,4.7-0.5,6-1.4
		c1.4-1,2.1-2.3,2.1-4.1c0-1.3-0.3-2.3-1-3.2c-0.7-0.9-1.6-1.5-2.7-1.8c0.8-0.4,1.5-1.1,2-1.8C61.8,21.9,62,21,62,20
		c0-1.6-0.7-2.9-2-3.9c-1.3-0.9-3.2-1.4-5.7-1.4H42.9v3.8H45v16.5H55L55,35.1z M53.8,23.1h-4.1v-4.8h4.1c1.2,0,2,0.2,2.6,0.6
		c0.6,0.4,0.9,1,0.9,1.8c0,0.8-0.3,1.4-0.9,1.8C55.8,22.9,55,23.1,53.8,23.1L53.8,23.1z M54.6,31.6h-4.9v-5h4.9
		c2.5,0,3.7,0.8,3.7,2.5c0,0.9-0.3,1.5-0.9,1.9C56.8,31.4,55.8,31.6,54.6,31.6L54.6,31.6z M72.2,35.3c2.1,0,3.7-0.7,4.9-2v1.8h4.3
		V19.5h-4.5v1.7c-1.1-1.3-2.7-1.9-4.7-1.9c-1.5,0-2.8,0.3-4,1c-1.2,0.7-2.1,1.6-2.8,2.8c-0.7,1.2-1,2.6-1,4.2s0.3,3,1,4.2
		c0.7,1.2,1.6,2.2,2.8,2.8C69.4,35,70.7,35.3,72.2,35.3z M73,31.6c-1.2,0-2.1-0.4-2.9-1.2c-0.8-0.8-1.1-1.8-1.1-3.2s0.4-2.4,1.1-3.2
		c0.8-0.8,1.7-1.2,2.9-1.2c1.1,0,2.1,0.4,2.8,1.2c0.8,0.8,1.1,1.8,1.1,3.2c0,1.3-0.4,2.4-1.1,3.2C75.1,31.2,74.1,31.6,73,31.6z
		 M89.6,35.1v-7.7c0-1.4,0.3-2.4,1-3.2c0.7-0.7,1.6-1.1,2.7-1.1c1,0,1.8,0.3,2.3,0.9c0.5,0.6,0.8,1.5,0.8,2.8v8.3h4.5v-9
		c0-2.3-0.6-4-1.8-5.2c-1.2-1.2-2.7-1.7-4.7-1.7c-1.2,0-2.3,0.2-3.3,0.7c-1,0.5-1.7,1.1-2.3,2l-0.2-2.4h-5.4V23h1.7v12.2L89.6,35.1
		L89.6,35.1z M108.9,35.1v-6.8h2.1l4.4,6.8h5.1l-5.6-8.8l5.3-6.9h-5l-4.2,5.4h-2.1V13.5h-4.5v21.6H108.9z"/>
</g>
</svg>
