<?xml version="1.0" encoding="utf-8"?>
<!-- Generator: Adobe Illustrator 28.0.0, SVG Export Plug-In . SVG Version: 6.00 Build 0)  -->
<svg version="1.1" id="Layer_1" xmlns="http://www.w3.org/2000/svg" xmlns:xlink="http://www.w3.org/1999/xlink" x="0px" y="0px"
	 viewBox="0 0 1400 1000" style="enable-background:new 0 0 1400 1000;" xml:space="preserve">
<style type="text/css">
	.st0{fill:#F0F0F0;}
	.st1{fill:#0D1E2E;}
	.st2{fill:#D1A95F;}
</style>
<rect x="200" y="-200" transform="matrix(-1.836970e-16 1 -1 -1.836970e-16 1200 -200)" class="st0" width="1000" height="1400"/>
<g>
	<g>
		<g>
			<path class="st1" d="M362.8,501.8c-1.4-3.4-3.4-6.4-5.8-8.9c-2.4-2.5-5.3-4.5-8.6-6c-3.3-1.4-6.8-2.2-10.5-2.2
				c-4.6,0-8.6,1-12.1,2.9c-3.4,1.9-6.2,4.6-8.3,7.9v-31h-9.7v49.3c0,3.7,0.7,7.3,2.1,10.6c1.4,3.3,3.4,6.2,5.9,8.7
				c2.5,2.5,5.6,4.5,9.2,5.9c3.6,1.5,7.4,2.2,11.7,2.2c3.9,0,7.5-0.7,10.9-2.1c3.4-1.4,6.4-3.4,8.9-6c2.5-2.5,4.6-5.5,6.1-9
				c1.5-3.4,2.3-7.1,2.3-11.1C364.9,509,364.2,505.2,362.8,501.8z M353.8,520.6c-1,2.3-2.3,4.3-4,6c-1.7,1.7-3.7,3-6,4
				c-2.3,1-4.8,1.5-7.4,1.5c-2.7,0-5.1-0.5-7.4-1.5c-2.3-1-4.3-2.3-6-4c-1.7-1.7-3-3.7-4-6c-1-2.3-1.5-4.9-1.5-7.6
				c0-2.7,0.5-5.3,1.5-7.6c1-2.3,2.3-4.3,4-6c1.7-1.7,3.7-3,6-4c2.3-1,4.8-1.5,7.4-1.5c2.6,0,5.1,0.5,7.4,1.5c2.3,1,4.3,2.3,6,4
				c1.7,1.7,3,3.7,4,6c1,2.3,1.5,4.9,1.5,7.6C355.2,515.7,354.7,518.2,353.8,520.6z"/>
			<path class="st1" d="M428.1,513.1c0-3.8-0.6-7.4-1.9-10.9c-1.3-3.4-3.1-6.5-5.4-9c-2.3-2.6-5.2-4.6-8.5-6.1
				c-3.3-1.5-7-2.3-11-2.3c-4.2,0-8,0.7-11.5,2.2c-3.5,1.4-6.5,3.4-8.9,6c-2.5,2.5-4.4,5.5-5.8,8.9c-1.4,3.4-2,7.1-2,11.1
				c0,4,0.7,7.8,2.1,11.2c1.4,3.4,3.4,6.4,5.9,8.9c2.5,2.5,5.5,4.5,9.1,5.9c3.6,1.4,7.5,2.1,11.8,2.1c2.6,0,5.3-0.3,7.8-0.9
				c2.5-0.6,4.9-1.5,7.1-2.8c2.2-1.3,4.2-2.8,6-4.7s3.3-4.1,4.4-6.7l-10-1.2c-1.4,2.2-3.4,3.9-6,5.4c-2.5,1.4-5.6,2.2-9.1,2.2
				c-5,0-9.1-1.3-12.5-4c-3.4-2.6-5.5-6.4-6.3-11.1h44.5C428,515.9,428.1,514.5,428.1,513.1z M383.1,509.2c0.6-4.7,2.6-8.5,5.8-11.4
				c3.2-2.8,7.3-4.3,12.3-4.3c2.1,0,4.1,0.3,6,1c1.9,0.6,3.7,1.6,5.2,3c1.6,1.3,2.9,3,3.9,4.9c1,1.9,1.7,4.2,2.1,6.8H383.1z"/>
			<path class="st1" d="M495.2,464.5h-0.4L461,539.9h11.2l5.8-14h0.1l16.9-40.2l22.8,54.2h11.1L495.2,464.5z"/>
			<path class="st1" d="M610.4,464.5l-18,50.9l-21.9-50.9H570l-21.9,50.9l-18-50.9h-10.9l28,75.4h0.4l22.6-53.8l22.5,53.8h0.4
				l28-75.4H610.4z"/>
			<path class="st1" d="M642.4,530v-23.2h38.4v-9.8h-38.4v-22.5h41.1v-9.9h-51.5v75.4h52V530H642.4z"/>
			<path class="st1" d="M746.8,510.6c-1.4-2.4-3.3-4.4-5.5-6c-2.3-1.6-4.9-3-7.9-4.1c-3-1.1-6-2.2-9.2-3.2c-2.8-0.9-5.2-1.7-7.3-2.6
				c-2-0.9-3.8-1.8-5.1-2.8c-1.4-1-2.4-2.1-3.1-3.3c-0.7-1.2-1-2.7-1-4.4c0-3.2,1.2-5.8,3.6-7.9c2.4-2.1,5.7-3.1,9.9-3.1
				c4.7,0,8.3,1.1,11,3.2c2.7,2.2,4.7,4.8,5.9,8.1l10.2-0.8c-0.6-2.8-1.7-5.4-3.3-7.9c-1.5-2.5-3.5-4.7-5.8-6.5
				c-2.3-1.9-5-3.4-8-4.5c-3.1-1.1-6.4-1.7-10.1-1.7c-3.2,0-6.3,0.5-9.1,1.5c-2.9,1-5.4,2.4-7.6,4.2c-2.2,1.8-3.9,4.1-5.2,6.7
				c-1.3,2.7-1.9,5.6-1.9,8.9c0,3.4,0.6,6.3,1.9,8.6c1.3,2.3,3,4.3,5.2,5.9c2.1,1.6,4.6,3,7.4,4.1c2.8,1.1,5.7,2.1,8.7,3.1
				c2.9,0.9,5.4,1.7,7.6,2.5c2.2,0.8,4.1,1.8,5.6,2.8c1.5,1,2.6,2.2,3.4,3.5c0.8,1.3,1.2,2.8,1.2,4.6c0,3.2-1.2,6-3.7,8.2
				c-2.4,2.2-6.4,3.3-11.7,3.3c-5.5,0-9.8-1.2-13.1-3.6c-3.3-2.4-5.5-5.7-6.7-9.7l-9.6,0.3c0.4,3.1,1.5,6,3.1,8.8
				c1.7,2.8,3.8,5.2,6.4,7.3c2.6,2.1,5.5,3.8,8.9,5.1c3.3,1.3,6.9,1.9,10.8,1.9c3.9,0,7.4-0.5,10.6-1.5c3.2-1,5.9-2.4,8.2-4.3
				c2.3-1.9,4.1-4.2,5.3-6.8c1.3-2.7,1.9-5.7,1.9-9C748.9,516,748.2,513,746.8,510.6z"/>
			<path class="st1" d="M831.3,486.9c-2-4.7-4.8-8.9-8.3-12.4c-3.5-3.5-7.6-6.3-12.4-8.3c-4.7-2-9.8-3-15.3-3c-5.4,0-10.5,1-15.2,3
				c-4.7,2-8.9,4.8-12.4,8.3c-3.5,3.5-6.3,7.6-8.3,12.4c-2,4.7-3.1,9.8-3.1,15.3c0,5.5,1,10.6,3.1,15.3c2,4.7,4.8,8.9,8.3,12.4
				c3.5,3.5,7.6,6.3,12.4,8.3c4.7,2,9.8,3,15.2,3c5.5,0,10.5-1,15.3-3c4.7-2,8.9-4.8,12.4-8.3c3.5-3.5,6.3-7.7,8.3-12.4
				c2-4.7,3.1-9.8,3.1-15.3C834.4,496.8,833.4,491.7,831.3,486.9z M821.8,513.7c-1.5,3.5-3.5,6.6-6.1,9.2c-2.6,2.6-5.6,4.6-9.2,6.1
				c-3.5,1.5-7.3,2.2-11.3,2.2c-4,0-7.8-0.7-11.3-2.2c-3.5-1.5-6.5-3.5-9.1-6.1c-2.6-2.6-4.6-5.7-6.1-9.2c-1.5-3.6-2.2-7.4-2.2-11.5
				s0.7-7.9,2.2-11.5c1.5-3.5,3.5-6.6,6.1-9.2c2.6-2.6,5.6-4.6,9.1-6.1c3.5-1.5,7.2-2.2,11.3-2.2c4,0,7.8,0.7,11.3,2.2
				c3.5,1.5,6.6,3.5,9.2,6.1c2.6,2.6,4.6,5.7,6.1,9.2c1.5,3.6,2.2,7.4,2.2,11.5S823.3,510.1,821.8,513.7z"/>
			<path class="st1" d="M939.6,464.5l-46.3,59.2l-46-59.2h-0.4v75.4h10.3v-48.1l35.8,48.1h0.4l36.2-48.1v48.1H940v-75.4H939.6z"/>
			<path class="st1" d="M966.6,530v-23.2h38.4v-9.8h-38.4v-22.5h41.1v-9.9h-51.5v75.4h52V530H966.6z"/>
		</g>
	</g>
	<g>
		<path class="st2" d="M677.4,599.1c17.4,33.8,44.2,62.8,76.8,83c16.3,10.1,33.9,18,52.4,23.4c18.4,5.4,37.6,8.2,56.9,8.5
			c19.3,0.2,38.6-2.1,57.4-7c18.7-4.9,36.8-12.4,53.6-22.2c33.6-19.5,61.9-48.4,80.8-82.7c-17.9,34.8-45.6,64.7-79.1,85.4
			c-16.8,10.4-35,18.5-54,24c-19,5.5-38.8,8.5-58.6,8.8c-19.9,0.2-39.8-2.2-59.1-7.2c-19.3-5.1-37.9-12.8-55.2-22.8
			c-34.6-20.1-63.7-49.8-83.1-85.2l0,0c-1.7-3.1-0.6-6.9,2.5-8.6c3.1-1.7,6.9-0.6,8.6,2.5C677.3,599,677.4,599.1,677.4,599.1z"/>
		<path class="st2" d="M657.2,413.9c17.3-40.3,46.8-74.9,83.3-98.6c18.2-11.9,38.2-21,59-27c20.8-6,42.5-8.9,64.1-8.7
			c21.6,0.3,43.1,3.7,63.6,10.2c20.5,6.5,40,16,57.7,28.1c35.4,24.2,63.3,58.9,79.2,98.4c-16.8-39.1-45.5-72.8-80.9-95.8
			c-17.7-11.5-37.1-20.4-57.3-26.2c-20.2-5.8-41.3-8.6-62.2-8.4c-21,0.3-41.9,3.6-61.8,9.9c-19.9,6.3-38.8,15.5-56,27.3
			c-34.4,23.5-61.5,57.2-76.8,95.6c-1.3,3.3-5,4.8-8.3,3.5c-3.3-1.3-4.8-5-3.5-8.3C657.1,414.1,657.1,414,657.2,413.9L657.2,413.9z"
			/>
	</g>
	<g>
		<g>
			<path class="st1" d="M1056.5,438.4c-0.4-1.2-0.6-2.4-0.5-3.5c0-1.2,0.2-2.2,0.6-3.2c0.4-1,0.9-1.9,1.5-2.7
				c0.7-0.8,1.4-1.4,2.3-1.8l0.8,2.3c-1.2,0.8-2.1,1.9-2.5,3.3c-0.5,1.4-0.4,3,0.2,4.8c0.6,1.8,1.4,3.1,2.5,3.7
				c1.1,0.6,2.2,0.7,3.4,0.3c0.7-0.2,1.2-0.5,1.5-1c0.4-0.4,0.6-1,0.8-1.6c0.2-0.6,0.3-1.3,0.4-2.2c0-0.8,0.1-1.7,0-2.7
				c0-1.1,0-2.1,0.1-3.1c0-1,0.2-1.9,0.5-2.8c0.3-0.8,0.7-1.6,1.3-2.2c0.6-0.6,1.4-1.1,2.4-1.5c1-0.3,2-0.4,2.9-0.3
				c0.9,0.1,1.8,0.4,2.6,0.9c0.8,0.5,1.5,1.1,2.1,1.9c0.6,0.8,1.1,1.7,1.4,2.7c0.4,1.1,0.5,2.2,0.5,3.2c0,1-0.2,2-0.6,2.9
				c-0.3,0.9-0.8,1.7-1.4,2.4c-0.6,0.7-1.3,1.3-2,1.7l-0.9-2.4c0.5-0.4,0.9-0.8,1.2-1.3c0.4-0.5,0.6-1,0.8-1.6
				c0.2-0.6,0.3-1.2,0.3-1.9c0-0.7-0.1-1.4-0.4-2.2c-0.5-1.5-1.3-2.5-2.3-3.1c-1-0.6-2.1-0.7-3.3-0.3c-0.6,0.2-1.1,0.5-1.5,0.9
				c-0.4,0.4-0.6,0.9-0.8,1.5c-0.2,0.6-0.3,1.2-0.3,2c-0.1,0.8-0.1,1.6-0.1,2.6c0,1.1,0,2.2-0.1,3.3c-0.1,1.1-0.2,2-0.5,2.9
				c-0.3,0.9-0.7,1.7-1.3,2.3c-0.6,0.7-1.4,1.2-2.5,1.5c-1,0.3-2,0.4-2.9,0.3c-0.9-0.1-1.8-0.4-2.6-0.9c-0.8-0.5-1.5-1.2-2.2-2.1
				C1057.4,440.6,1056.9,439.5,1056.5,438.4z"/>
			<path class="st1" d="M1087.2,469.7l-1.4-7.4l-22,4l-0.5-2.7l22-4l-1.4-7.4l2.5-0.5l3.2,17.5L1087.2,469.7z"/>
			<path class="st1" d="M1066.6,495.2c0-1.4,0.1-2.6,0.5-3.8c0.4-1.1,0.9-2.1,1.6-3c0.7-0.8,1.6-1.5,2.7-2c1.1-0.5,2.2-0.7,3.5-0.8
				l16.6-0.6l0.1,2.6l-16.5,0.6c-0.9,0-1.7,0.2-2.5,0.5c-0.7,0.3-1.4,0.7-1.9,1.3c-0.5,0.6-0.9,1.3-1.2,2.1
				c-0.3,0.8-0.4,1.8-0.4,2.9c0,1.1,0.2,2.1,0.6,2.9c0.3,0.8,0.8,1.5,1.4,2c0.6,0.5,1.2,0.9,2,1.2c0.8,0.2,1.6,0.3,2.5,0.3l16.5-0.6
				l0.1,2.6l-16.6,0.6c-1.3,0-2.5-0.1-3.6-0.5c-1.1-0.4-2-1-2.8-1.8c-0.8-0.8-1.4-1.7-1.8-2.8
				C1066.9,497.8,1066.6,496.6,1066.6,495.2z"/>
			<path class="st1" d="M1090.3,531.5c-0.2,1.7-0.7,3.2-1.5,4.6s-1.9,2.5-3.1,3.4c-1.2,0.9-2.6,1.6-4.2,2c-1.6,0.4-3.2,0.5-4.9,0.3
				c-1.7-0.2-3.3-0.7-4.7-1.4s-2.6-1.7-3.6-2.9c-1-1.2-1.7-2.5-2.2-4c-0.5-1.5-0.6-3.1-0.4-4.8l1.2-9.5l24.7,3L1090.3,531.5z
				 M1068.1,528.8c-0.2,1.4-0.1,2.6,0.3,3.8c0.4,1.2,0.9,2.2,1.7,3.1c0.8,0.9,1.7,1.7,2.9,2.3c1.1,0.6,2.4,1,3.8,1.1
				c1.4,0.2,2.7,0.1,4-0.2c1.3-0.3,2.4-0.8,3.3-1.5c1-0.7,1.8-1.6,2.4-2.6s1-2.3,1.2-3.6l0.8-6.9l-19.7-2.4L1068.1,528.8z"/>
			<path class="st1" d="M1084.5,562l-24.1-6.1l0.6-2.5l24.1,6.1L1084.5,562z"/>
			<path class="st1" d="M1051.8,580.9c0.7-1.7,1.6-3.1,2.8-4.3c1.2-1.2,2.6-2.1,4.1-2.8c1.5-0.6,3.1-1,4.8-1c1.7,0,3.4,0.3,5,0.9
				c1.6,0.7,3.1,1.6,4.3,2.8c1.2,1.2,2.1,2.5,2.8,4c0.6,1.5,1,3.1,1.1,4.8c0.1,1.7-0.3,3.4-0.9,5c-0.7,1.7-1.6,3.1-2.8,4.3
				c-1.2,1.2-2.6,2.1-4.1,2.8c-1.5,0.6-3.1,1-4.8,1s-3.4-0.3-5-0.9c-1.6-0.7-3.1-1.6-4.3-2.8c-1.2-1.2-2.1-2.5-2.8-4.1
				c-0.6-1.5-1-3.1-1-4.8C1050.9,584.3,1051.2,582.6,1051.8,580.9z M1054.2,581.9c-0.5,1.3-0.8,2.7-0.7,4c0,1.4,0.3,2.6,0.8,3.8
				c0.5,1.2,1.3,2.3,2.2,3.2c1,0.9,2.1,1.7,3.5,2.2c1.3,0.5,2.7,0.8,4,0.8c1.4,0,2.6-0.3,3.8-0.8c1.2-0.5,2.3-1.2,3.2-2.2
				c1-1,1.7-2.1,2.2-3.4c0.5-1.3,0.8-2.7,0.7-4c0-1.3-0.3-2.6-0.8-3.8c-0.5-1.2-1.3-2.3-2.2-3.2c-1-0.9-2.1-1.7-3.5-2.2
				c-1.3-0.5-2.7-0.8-4-0.8c-1.4,0-2.6,0.3-3.8,0.8c-1.2,0.5-2.3,1.2-3.2,2.2C1055.5,579.4,1054.7,580.6,1054.2,581.9z"/>
		</g>
	</g>
</g>
</svg>
